REM DIRINDEX 1\2,1\3,1\4,1\5
REM DIRNAME "folder01","folder02","folder03","folder04","folder05"
TITLE ""
FILE "1Q_t_1239-1248.mp3" MP3
  TRACK 01 AUDIO
    TITLE "3:cjc172_4687"
    INDEX 01 00:00:00
  TRACK 02 AUDIO
    TITLE "0:"
    INDEX 01 00:01:27
  TRACK 03 AUDIO
    TITLE "4:cjc172_4688"
    INDEX 01 00:01:35
  TRACK 04 AUDIO
    TITLE "0:"
    INDEX 01 00:04:71
  TRACK 05 AUDIO
    TITLE "5:cjc172_4689"
    INDEX 01 00:05:02
  TRACK 06 AUDIO
    TITLE "0:"
    INDEX 01 00:10:09
  TRACK 07 AUDIO
    TITLE "3:cjc172_4690"
    INDEX 01 00:10:54
  TRACK 08 AUDIO
    TITLE "0:"
    INDEX 01 00:11:65
  TRACK 09 AUDIO
    TITLE "4:cjc172_4691"
    INDEX 01 00:11:73
  TRACK 10 AUDIO
    TITLE "0:"
    INDEX 01 00:13:36
  TRACK 11 AUDIO
    TITLE "5:cjc172_4692"
    INDEX 01 00:13:42
  TRACK 12 AUDIO
    TITLE "0:"
    INDEX 01 00:19:43
  TRACK 13 AUDIO
    TITLE "3:cjc172_4693"
    INDEX 01 00:20:19
  TRACK 14 AUDIO
    TITLE "0:"
    INDEX 01 00:21:61
  TRACK 15 AUDIO
    TITLE "4:cjc172_4694"
    INDEX 01 00:21:67
  TRACK 16 AUDIO
    TITLE "0:"
    INDEX 01 00:24:70
  TRACK 17 AUDIO
    TITLE "5:cjc172_4695"
    INDEX 01 00:25:02
  TRACK 18 AUDIO
    TITLE "0:"
    INDEX 01 00:32:46
  TRACK 19 AUDIO
    TITLE "3:cjc172_4696"
    INDEX 01 00:33:16
  TRACK 20 AUDIO
    TITLE "0:"
    INDEX 01 00:34:29
  TRACK 21 AUDIO
    TITLE "4:cjc172_4697"
    INDEX 01 00:34:37
  TRACK 22 AUDIO
    TITLE "0:"
    INDEX 01 00:35:54
  TRACK 23 AUDIO
    TITLE "5:cjc172_4698"
    INDEX 01 00:35:60
  TRACK 24 AUDIO
    TITLE "0:"
    INDEX 01 00:40:73
  TRACK 25 AUDIO
    TITLE "3:cjc172_4699"
    INDEX 01 00:41:45
  TRACK 26 AUDIO
    TITLE "0:"
    INDEX 01 00:42:71
  TRACK 27 AUDIO
    TITLE "4:cjc172_4700"
    INDEX 01 00:43:02
  TRACK 28 AUDIO
    TITLE "0:"
    INDEX 01 00:44:39
  TRACK 29 AUDIO
    TITLE "5:cjc172_4701"
    INDEX 01 00:44:45
  TRACK 30 AUDIO
    TITLE "0:"
    INDEX 01 00:50:57
  TRACK 31 AUDIO
    TITLE "3:cjc172_4702"
    INDEX 01 00:51:29
  TRACK 32 AUDIO
    TITLE "0:"
    INDEX 01 00:52:48
  TRACK 33 AUDIO
    TITLE "4:cjc172_4703"
    INDEX 01 00:52:56
  TRACK 34 AUDIO
    TITLE "0:"
    INDEX 01 00:54:14
  TRACK 35 AUDIO
    TITLE "5:cjc172_4704"
    INDEX 01 00:54:22
  TRACK 36 AUDIO
    TITLE "0:"
    INDEX 01 00:58:74
  TRACK 37 AUDIO
    TITLE "3:cjc172_4705"
    INDEX 01 00:59:46
  TRACK 38 AUDIO
    TITLE "0:"
    INDEX 01 01:00:40
  TRACK 39 AUDIO
    TITLE "4:cjc172_4706"
    INDEX 01 01:00:48
  TRACK 40 AUDIO
    TITLE "0:"
    INDEX 01 01:02:54
  TRACK 41 AUDIO
    TITLE "5:cjc172_4707"
    INDEX 01 01:02:60
  TRACK 42 AUDIO
    TITLE "0:"
    INDEX 01 01:08:14
  TRACK 43 AUDIO
    TITLE "3:cjc172_4708"
    INDEX 01 01:08:59
  TRACK 44 AUDIO
    TITLE "0:"
    INDEX 01 01:10:03
  TRACK 45 AUDIO
    TITLE "4:cjc172_4709"
    INDEX 01 01:10:11
  TRACK 46 AUDIO
    TITLE "0:"
    INDEX 01 01:11:53
  TRACK 47 AUDIO
    TITLE "5:cjc172_4710"
    INDEX 01 01:11:59
  TRACK 48 AUDIO
    TITLE "0:"
    INDEX 01 01:17:40
  TRACK 49 AUDIO
    TITLE "3:cjc172_4711"
    INDEX 01 01:18:12
  TRACK 50 AUDIO
    TITLE "0:"
    INDEX 01 01:19:27
  TRACK 51 AUDIO
    TITLE "4:cjc172_4712"
    INDEX 01 01:19:39
  TRACK 52 AUDIO
    TITLE "0:"
    INDEX 01 01:21:60
  TRACK 53 AUDIO
    TITLE "5:cjc172_4713"
    INDEX 01 01:21:66
  TRACK 54 AUDIO
    TITLE "0:"
    INDEX 01 01:26:35
  TRACK 55 AUDIO
    TITLE "3:cjc172_4714"
    INDEX 01 01:27:13
  TRACK 56 AUDIO
    TITLE "0:"
    INDEX 01 01:28:15
  TRACK 57 AUDIO
    TITLE "4:cjc172_4715"
    INDEX 01 01:28:26
  TRACK 58 AUDIO
    TITLE "0:"
    INDEX 01 01:29:20
  TRACK 59 AUDIO
    TITLE "5:cjc172_4716"
    INDEX 01 01:29:26
  TRACK 60 AUDIO
    TITLE "0:"
    INDEX 01 01:34:62
